<svg width="104" height="117" viewBox="0 0 104 117" fill="none" xmlns="http://www.w3.org/2000/svg">
<path d="M46.9615 1.33975C50.0555 -0.446582 53.8675 -0.446582 56.9615 1.33975L98.923 25.5662C102.017 27.3526 103.923 30.6538 103.923 34.2265V82.6795C103.923 86.2522 102.017 89.5534 98.923 91.3397L56.9615 115.566C53.8675 117.353 50.0555 117.353 46.9615 115.566L5 91.3397C1.90599 89.5534 0 86.2522 0 82.6795V34.2265C0 30.6538 1.90599 27.3526 5 25.5662L46.9615 1.33975Z" fill="#414042"/>
<path d="M48.9615 15.185C50.8179 14.1132 53.1051 14.1133 54.9615 15.185L87.9327 34.2209C89.7891 35.2927 90.9327 37.2735 90.9327 39.4171V77.4889C90.9327 79.6325 89.7891 81.6133 87.9327 82.685L54.9615 101.721C53.1051 102.793 50.8179 102.793 48.9615 101.721L15.9904 82.685C14.134 81.6133 12.9904 79.6325 12.9904 77.4889V39.4171C12.9904 37.2735 14.134 35.2927 15.9904 34.2209L48.9615 15.185Z" fill="#D9D9D9"/>
<rect x="51.5" y="29" width="14.785" height="16.7489" rx="3" transform="rotate(45 51.5 29)" fill="#414042"/>
<rect x="75.5455" y="53.0455" width="14.785" height="17.4771" rx="3" transform="rotate(45 75.5455 53.0455)" fill="#414042"/>
<rect x="27.2985" y="53.2015" width="22.1774" height="14.5643" rx="3" transform="rotate(45 27.2985 53.2015)" fill="#414042"/>
<rect x="67.3066" y="61.2843" width="14.785" height="20.39" rx="3" transform="rotate(45 67.3066 61.2843)" fill="#414042"/>
<rect x="37.7531" y="63.656" width="17.0027" height="14.5643" rx="3" transform="rotate(45 37.7531 63.656)" fill="#414042"/>
<rect x="57.7727" y="35.2727" width="22.9167" height="14.5643" rx="3" transform="rotate(45 57.7727 35.2727)" fill="#414042"/>
<rect x="43.2612" y="37.2388" width="14.785" height="20.39" rx="3" transform="rotate(45 43.2612 37.2388)" fill="#414042"/>
</svg>
